<?xml version="1.0" encoding="UTF-8"?>
<svg version="1.1" xmlns="http://www.w3.org/2000/svg" width="374" height="374">
<path d="M0 0 C123.42 0 246.84 0 374 0 C374 123.42 374 246.84 374 374 C250.58 374 127.16 374 0 374 C0 250.58 0 127.16 0 0 Z " fill="#BFDAF5" transform="translate(0,0)"/>
<path d="M0 0 C1.2890625 -0.00773438 2.578125 -0.01546875 3.90625 -0.0234375 C11.50792949 -0.00798693 18.58802612 0.57279481 26 2.25 C26.7307373 2.40033691 27.46147461 2.55067383 28.21435547 2.70556641 C45.88991465 6.47640731 61.6808925 15.09576494 75 27.25 C75.82242187 27.93191406 76.64484375 28.61382812 77.4921875 29.31640625 C92.8198538 42.28046046 108.35106962 63.68431106 110.28125 84.24609375 C110.3534375 85.38175781 110.425625 86.51742187 110.5 87.6875 C110.71617155 91.94564156 110.71617155 91.94564156 111.50927734 96.11279297 C112.09237447 98.6523115 112.12964294 100.96861151 112.1328125 103.57421875 C112.13410156 104.60353516 112.13539063 105.63285156 112.13671875 106.69335938 C112.13285156 107.76392578 112.12898438 108.83449219 112.125 109.9375 C112.12886719 110.98873047 112.13273437 112.03996094 112.13671875 113.12304688 C112.12277547 124.32647083 110.6259825 133.62076611 107 144.25 C106.73574219 145.04921875 106.47148437 145.8484375 106.19921875 146.671875 C96.82722218 172.43376131 77.75508915 195.63615201 54 209.25 C53.34 209.25 52.68 209.25 52 209.25 C52 209.91 52 210.57 52 211.25 C49.41454372 213.22711363 47.21621698 214.19479566 44.0625 215 C39.70333967 213.93245053 38.89618548 211.48858161 36.55883789 207.82617188 C34.13850221 203.82626864 31.89514894 199.74521609 29.6875 195.625 C25.35386212 187.64357596 20.83798046 179.81248284 16.10595703 172.06201172 C14.16439733 168.88093974 12.23727518 165.69124627 10.3125 162.5 C9.96815918 161.93434326 9.62381836 161.36868652 9.26904297 160.78588867 C6.59351188 156.35307485 4.1212306 151.82220137 1.65356445 147.27099609 C-1.34824833 141.78680425 -4.45825024 136.36413439 -7.5625 130.9375 C-7.90539062 130.33681702 -8.24828125 129.73613403 -8.6015625 129.11724854 C-14.02278963 119.62225785 -19.53747897 110.18683406 -25.18969727 100.8269043 C-25.69428467 99.98426025 -26.19887207 99.14161621 -26.71875 98.2734375 C-27.16154297 97.54044434 -27.60433594 96.80745117 -28.06054688 96.05224609 C-29 94.25 -29 94.25 -29 92.25 C-32.22020246 94.39680164 -32.84861246 95.46146614 -34.5625 98.8125 C-37.11327322 103.63896306 -39.78378656 108.3654533 -42.5625 113.0625 C-42.97781982 113.76560303 -43.39313965 114.46870605 -43.82104492 115.19311523 C-45.21258799 117.54626646 -46.60631014 119.89811967 -48 122.25 C-49.71535386 125.14898337 -51.43004688 128.04835603 -53.14428711 130.94799805 C-54.2733155 132.85742412 -55.40300467 134.76645967 -56.53344727 136.67504883 C-57.56305369 138.41507893 -58.58828678 140.15770685 -59.60839844 141.90332031 C-60.48196931 143.37643667 -61.37802381 144.83668617 -62.30566406 146.27636719 C-64.50563818 149.70370024 -64.50563818 149.70370024 -64.75024414 153.65551758 C-63.96804367 156.36051087 -62.95104569 158.4857785 -61.55078125 160.92578125 C-61.03870117 161.82490234 -60.52662109 162.72402344 -59.99902344 163.65039062 C-59.4424707 164.61138672 -58.88591797 165.57238281 -58.3125 166.5625 C-57.74176758 167.56345703 -57.17103516 168.56441406 -56.58300781 169.59570312 C-53.4631481 175.04910267 -50.28491653 180.46441838 -47.05859375 185.85546875 C-46.42203857 186.92563232 -45.7854834 187.9957959 -45.12963867 189.09838867 C-43.8995376 191.16091298 -42.65918433 193.21736573 -41.4074707 195.2668457 C-35.96881576 204.38736331 -35.96881576 204.38736331 -36 210.25 C-38.78091885 213.03091885 -40.45085225 212.50353599 -44.34570312 212.50878906 C-44.99627182 212.5122937 -45.64684052 212.51579834 -46.31712341 212.51940918 C-48.47194017 212.52822629 -50.62642978 212.52237763 -52.78125 212.515625 C-54.27575748 212.51697166 -55.77026453 212.5189122 -57.26477051 212.52142334 C-60.39872402 212.52437457 -63.53256362 212.52007707 -66.66650391 212.51074219 C-70.68850013 212.49934757 -74.71022945 212.50590706 -78.73221588 212.51788712 C-81.81880717 212.5251058 -84.90533493 212.52281777 -87.9919281 212.51763153 C-89.47513358 212.51629505 -90.95834478 212.51794269 -92.44154358 212.52259064 C-94.51261731 212.52765612 -96.58325566 212.51994584 -98.65429688 212.50878906 C-99.83407104 212.50719788 -101.01384521 212.50560669 -102.22937012 212.50396729 C-105 212.25 -105 212.25 -107 210.25 C-106.85131064 204.48610052 -103.95706919 200.22611894 -101.0625 195.4375 C-100.57031982 194.60653809 -100.07813965 193.77557617 -99.57104492 192.91943359 C-98.55170349 191.19946841 -97.52864491 189.48170098 -96.50195312 187.76611328 C-95.09721247 185.41285301 -93.70875809 183.05105865 -92.328125 180.68359375 C-85.56973099 169.1057424 -85.56973099 169.1057424 -82.59765625 164.4765625 C-82.03437622 163.59266846 -82.03437622 163.59266846 -81.4597168 162.69091797 C-80.4492009 161.11566856 -79.4243681 159.5496288 -78.3984375 157.984375 C-76.82798135 154.91365069 -76.61425565 153.64381439 -77 150.25 C-78.46849071 147.29041625 -78.46849071 147.29041625 -80.515625 144.28125 C-81.25767307 143.12485974 -81.99785518 141.96727035 -82.73632812 140.80859375 C-83.1150708 140.21868652 -83.49381348 139.6287793 -83.8840332 139.02099609 C-87.02130486 134.04226746 -89.84713743 128.86738039 -92.75 123.75 C-93.44922767 122.52143185 -94.14869457 121.29299983 -94.84838867 120.06469727 C-96.24618111 117.61030392 -97.64290976 115.15531103 -99.03857422 112.69970703 C-101.79086154 107.85905233 -104.55044491 103.02258632 -107.3125 98.1875 C-107.79211182 97.34743408 -108.27172363 96.50736816 -108.76586914 95.6418457 C-112.05075014 89.89400525 -115.36415422 84.16316659 -118.6875 78.4375 C-122.20653563 72.36504096 -125.71785094 66.28834005 -129.1875 60.1875 C-129.76794067 59.17755981 -129.76794067 59.17755981 -130.36010742 58.1472168 C-133 53.48094926 -133 53.48094926 -133 51.25 C-136.52785027 54.4164224 -138.71227834 57.93639519 -140.9375 62.0625 C-141.72733371 63.49508448 -142.51773325 64.9273571 -143.30859375 66.359375 C-143.73640137 67.13861328 -144.16420898 67.91785156 -144.60498047 68.72070312 C-147.20540329 73.43550544 -149.85277339 78.12386254 -152.5 82.8125 C-153.05840576 83.80161377 -153.61681152 84.79072754 -154.19213867 85.80981445 C-158.66358521 93.7057251 -163.28172487 101.49992734 -168 109.25 C-169.56644673 111.83096419 -171.12778958 114.41496096 -172.6875 117 C-173.20425293 117.84884766 -173.20425293 117.84884766 -173.73144531 118.71484375 C-175.87375264 122.26437285 -177.89269301 125.86597536 -179.8671875 129.51171875 C-182.94152645 135.18213388 -186.16962804 140.75193805 -189.4375 146.3125 C-195.21453329 156.17680764 -200.94155891 166.06878012 -206.64282227 175.97705078 C-210.74880115 183.10492172 -214.89189003 190.20921589 -219.12011719 197.26538086 C-220.69372112 199.91167868 -222.0227133 202.3181399 -223 205.25 C-221.25566429 205.24666908 -221.25566429 205.24666908 -219.47608948 205.24327087 C-208.54230632 205.22304088 -197.60852694 205.20802855 -186.67472935 205.19818783 C-181.05292038 205.19295864 -175.43112647 205.18586034 -169.80932617 205.17456055 C-164.38881723 205.16373294 -158.9683228 205.15772344 -153.54780388 205.15512276 C-151.47485055 205.15326828 -149.40189806 205.14964723 -147.32895088 205.14426994 C-144.43616107 205.1370612 -141.54343204 205.13600899 -138.65063477 205.13647461 C-137.78461136 205.13287933 -136.91858795 205.12928406 -136.02632141 205.12557983 C-130.11405216 205.13594784 -130.11405216 205.13594784 -129 206.25 C-128.875 208.75 -128.875 208.75 -129 211.25 C-130.96005447 213.21005447 -133.9651213 212.38364313 -136.57525635 212.39663696 C-137.52229431 212.39618378 -138.46933228 212.39573059 -139.44506836 212.39526367 C-140.436866 212.39862228 -141.42866364 212.4019809 -142.45051575 212.40544128 C-145.74697096 212.41498286 -149.04337556 212.41689598 -152.33984375 212.41796875 C-154.6204887 212.42117905 -156.90113345 212.42454294 -159.18177795 212.42805481 C-163.96941607 212.43405408 -168.75703612 212.43589389 -173.54467773 212.43530273 C-179.69320063 212.43520105 -185.84160819 212.44885585 -191.99010372 212.46607494 C-196.70228106 212.47716854 -201.41443028 212.47922276 -206.12661934 212.47869301 C-208.39412394 212.47987702 -210.66162919 212.48432218 -212.92912102 212.49202538 C-216.09467629 212.50177235 -219.25997815 212.49896826 -222.42553711 212.49291992 C-223.37055084 212.49853943 -224.31556458 212.50415894 -225.28921509 212.50994873 C-226.57853691 212.503657 -226.57853691 212.503657 -227.89390564 212.49723816 C-229.01746665 212.49805531 -229.01746665 212.49805531 -230.16372585 212.49888897 C-232 212.25 -232 212.25 -234 210.25 C-233.80217298 204.7190861 -231.28486257 200.7853101 -228.5 196.1875 C-228.02079102 195.37804932 -227.54158203 194.56859863 -227.04785156 193.73461914 C-225.96965873 191.91344302 -224.8877231 190.09447933 -223.80273438 188.27734375 C-220.7874666 183.21378464 -217.81377956 178.12582979 -214.83560181 173.04040527 C-213.74122585 171.17252428 -212.64554063 169.30541671 -211.54956055 167.43847656 C-206.14028697 158.22050247 -200.78574038 148.97186733 -195.45410156 139.70874023 C-191.32719621 132.54138935 -187.17334891 125.39039875 -183 118.25 C-173.43680517 101.88183421 -163.96687295 85.45990972 -154.5625 69 C-154.07442871 68.14639893 -153.58635742 67.29279785 -153.08349609 66.41333008 C-150.91695038 62.62094602 -148.75774197 58.82494291 -146.62109375 55.015625 C-146.07763306 54.05124512 -146.07763306 54.05124512 -145.52319336 53.06738281 C-144.58500448 51.40098386 -143.65163534 49.73187377 -142.71875 48.0625 C-140.96369721 45.19059544 -139.36666407 42.65198742 -137 40.25 C-134.5559082 39.87060547 -134.5559082 39.87060547 -132 40.25 C-130.3815918 41.90673828 -130.3815918 41.90673828 -129.01171875 44.1953125 C-128.50688965 45.02063477 -128.00206055 45.84595703 -127.48193359 46.69628906 C-126.99289551 47.53901367 -126.50385742 48.38173828 -126 49.25 C-125.34185303 50.34779785 -125.34185303 50.34779785 -124.67041016 51.46777344 C-123.36081047 53.67399533 -122.08333258 55.89624269 -120.8125 58.125 C-119.84906015 59.80214182 -118.88551555 61.47922348 -117.921875 63.15625 C-117.43654297 64.00316406 -116.95121094 64.85007812 -116.45117188 65.72265625 C-114.61597981 68.91880501 -112.76629356 72.10641202 -110.91577148 75.29370117 C-106.66483517 82.61684583 -102.44595248 89.95772625 -98.25 97.3125 C-93.86458459 104.99642829 -89.46807064 112.67390881 -85.05334473 120.34103394 C-84.08893119 122.01657918 -83.12598772 123.69297029 -82.16308594 125.36938477 C-79.53610948 129.92773297 -76.89645623 134.45598509 -74.05859375 138.88671875 C-72 142.25 -72 142.25 -72 144.25 C-69.4634001 141.93372942 -67.84662374 139.52188058 -66.13671875 136.55078125 C-65.31131592 135.12536011 -65.31131592 135.12536011 -64.46923828 133.67114258 C-63.88126465 132.64529053 -63.29329102 131.61943848 -62.6875 130.5625 C-61.42845912 128.38537404 -60.16934233 126.20829198 -58.91015625 124.03125 C-58.26449707 122.91105469 -57.61883789 121.79085937 -56.95361328 120.63671875 C-52.17271119 112.34870652 -47.34940323 104.08571087 -42.50537109 95.83447266 C-41.15658277 93.51882667 -39.83344223 91.19100698 -38.51953125 88.85546875 C-37.82600476 87.65336651 -37.13204312 86.45151514 -36.4375 85.25 C-35.87933594 84.26 -35.32117188 83.27 -34.74609375 82.25 C-33 80.25 -33 80.25 -30.4921875 79.68359375 C-26.28767013 80.63916588 -25.14879787 83.60551087 -22.890625 87.06640625 C-20.46216084 91.15565892 -18.18940733 95.31287851 -16.01635742 99.54321289 C-13.70399958 104.03692542 -11.16467782 108.35720165 -8.54614258 112.67919922 C-6.0871186 116.76786533 -3.73317532 120.91511609 -1.375 125.0625 C-0.86211426 125.96194336 -0.34922852 126.86138672 0.17919922 127.78808594 C2.3073787 131.52034584 4.43301732 135.25405015 6.55859375 138.98779297 C12.14056941 148.78998369 17.75049084 158.57151298 23.48828125 168.28344727 C27.39444677 174.90038421 31.2016431 181.57065383 35 188.25 C35.74564506 189.55364216 36.49175035 190.85702117 37.23828125 192.16015625 C37.60614746 192.80251221 37.97401367 193.44486816 38.35302734 194.10668945 C39.06007528 195.34107864 39.76741786 196.57529912 40.47509766 197.80932617 C41.69303792 199.93777451 42.90305481 202.05610962 44 204.25 C65.14004977 198.18290051 81.54548589 176.48971628 91.9921875 158.140625 C95.39882094 151.80707434 97.66564835 145.03110022 100 138.25 C100.35964844 137.41855469 100.71929687 136.58710938 101.08984375 135.73046875 C106.44150745 121.14546253 105.64620148 100.10722329 102 85.25 C101.63261719 83.73986328 101.63261719 83.73986328 101.2578125 82.19921875 C95.844649 62.58248906 84.67723511 47.05198715 70 33.25 C69.38382812 32.65316406 68.76765625 32.05632813 68.1328125 31.44140625 C63.35316013 27.03909485 57.76038869 24.18748574 52 21.25 C52 20.59 52 19.93 52 19.25 C45.88346621 17.2029563 39.76349069 15.16782167 33.625 13.1875 C32.46484375 12.80368164 32.46484375 12.80368164 31.28125 12.41210938 C21.24796778 9.19185625 11.52819299 7.85845794 1 7.875 C-0.6243396 7.87741699 -0.6243396 7.87741699 -2.28149414 7.87988281 C-15.01322034 8.07109772 -27.56308863 10.11857686 -39.1875 15.515625 C-41 16.25 -41 16.25 -44 16.25 C-44 16.91 -44 17.57 -44 18.25 C-44.9075 18.58 -45.815 18.91 -46.75 19.25 C-63.26195808 26.44496969 -78.90762666 41.40876411 -87.75 56.9375 C-88.875 58.8515625 -88.875 58.8515625 -90 60.25 C-92.75 60.8125 -92.75 60.8125 -95 60.25 C-95.33 59.92 -95.66 59.59 -96 59.25 C-95.7264275 53.56810961 -93.99167392 50.14812056 -90.4375 45.875 C-89.9849585 45.31264648 -89.53241699 44.75029297 -89.06616211 44.17089844 C-87.72566819 42.51764621 -86.36528872 40.88279066 -85 39.25 C-83.98292969 38.00089844 -83.98292969 38.00089844 -82.9453125 36.7265625 C-75.07887747 27.42393186 -65.42017256 20.4393134 -55 14.25 C-54.17371094 13.73695312 -53.34742188 13.22390625 -52.49609375 12.6953125 C-46.89110484 9.3922198 -41.14081777 7.07798893 -35 5 C-34.27675537 4.7537085 -33.55351074 4.50741699 -32.80834961 4.25366211 C-21.88667227 0.71813087 -11.44727477 -0.06868365 0 0 Z " fill="#0C0D10" transform="translate(247,14.75)"/>
<path d="M0 0 C23 0 23 0 28 3 C32.79689521 8.25687147 32.60746523 13.24760135 32.5 20 C32.51546875 20.97195313 32.5309375 21.94390625 32.546875 22.9453125 C32.51424108 28.93363692 31.91400966 32.40259183 28 37 C29.00273251 39.01081818 30.00888385 41.01688979 31.05493164 43.00561523 C33.92079696 48.81987957 34.59011574 53.62802349 34.4375 60.0625 C34.44458984 60.90876953 34.45167969 61.75503906 34.45898438 62.62695312 C34.38882481 69.62671903 33.19637413 75.34123131 28.625 80.875 C19.81656131 88.00564084 12.49041708 85 0 85 C0 56.95 0 28.9 0 0 Z " fill="#070809" transform="translate(162,260)"/>
<path d="M0 0 C2.64 0 5.28 0 8 0 C12.48527227 11.10104888 16.52748903 22.29198114 20.24609375 33.67382812 C20.56191406 34.63998047 20.87773438 35.60613281 21.203125 36.6015625 C21.47801758 37.45057129 21.75291016 38.29958008 22.03613281 39.17431641 C23.27677387 42.81139332 24.65068425 46.40182467 26 50 C26.33 33.5 26.66 17 27 0 C29.64 0 32.28 0 35 0 C35 27.72 35 55.44 35 84 C32.69 84 30.38 84 28 84 C25.26818156 77.36545745 22.8003138 70.69124077 20.5625 63.875 C20.1135437 62.51846313 20.1135437 62.51846313 19.65551758 61.13452148 C17.37918184 54.22762843 15.18419643 47.29751126 13.04296875 40.34765625 C12.06827584 37.21914756 11.03622357 34.10867072 10 31 C9.67 48.49 9.34 65.98 9 84 C6.03 84 3.06 84 0 84 C0 56.28 0 28.56 0 0 Z " fill="#050506" transform="translate(74,260)"/>
<path d="M0 0 C3.3 0 6.6 0 10 0 C10.01213028 1.35516975 10.01213028 1.35516975 10.02450562 2.73771667 C10.10248575 11.25692897 10.18978689 19.77598398 10.28752708 28.2949934 C10.3374469 32.67457608 10.38377731 37.05413515 10.421875 41.43383789 C10.45878234 45.66145791 10.50515706 49.88887828 10.55806351 54.11632729 C10.57657851 55.7281983 10.59169715 57.34011207 10.60334396 58.95204735 C10.62025612 61.21197271 10.64930251 63.47144373 10.68115234 65.73120117 C10.69447601 67.01693527 10.70779968 68.30266937 10.7215271 69.62736511 C10.9875779 72.84955372 11.61236297 75.10359125 13 78 C17.07415064 77.82826291 17.07415064 77.82826291 21 77 C23.42689527 73.48271956 23.27504194 70.11266835 23.31884766 65.93652344 C23.32889328 65.23368225 23.3389389 64.53084106 23.34928894 63.80670166 C23.38010119 61.49093418 23.39715036 59.17528221 23.4140625 56.859375 C23.43277575 55.25082405 23.45234929 53.6422829 23.4727478 52.03375244 C23.52405851 47.8055194 23.56368985 43.57725454 23.60089111 39.34887695 C23.64093744 35.03198379 23.69202691 30.71522289 23.7421875 26.3984375 C23.83893422 17.93238204 23.92334294 9.46626108 24 1 C27.3 1 30.6 1 34 1 C34.09290462 10.37978532 34.1638683 19.75941091 34.20724869 29.13955688 C34.22807492 33.49571041 34.25630099 37.85154787 34.30175781 42.20751953 C34.34539387 46.41560957 34.3691744 50.62339663 34.37950897 54.83169556 C34.38686863 56.43279791 34.4012402 58.0338847 34.42292023 59.63485718 C34.64545323 76.75738893 34.64545323 76.75738893 28.55230713 83.63378906 C25.31218295 86.48547544 21.72989696 86.16401661 17.625 86.1875 C16.50351563 86.20167969 15.38203125 86.21585937 14.2265625 86.23046875 C10.26198312 85.94728451 7.36954232 85.31074883 4.453125 82.51953125 C4.05609375 81.95621094 3.6590625 81.39289063 3.25 80.8125 C2.84265625 80.26207031 2.4353125 79.71164062 2.015625 79.14453125 C-0.36883949 74.10964277 -0.12341702 68.24960969 -0.11352539 62.77954102 C-0.11367142 62.09576889 -0.11381744 61.41199677 -0.1139679 60.70750427 C-0.11327755 58.47293803 -0.10552677 56.23845772 -0.09765625 54.00390625 C-0.09578895 52.44449407 -0.09436652 50.88508131 -0.09336853 49.32566833 C-0.08956796 45.24043124 -0.07975891 41.15523025 -0.06866455 37.07000732 C-0.05839731 32.89368172 -0.05385957 28.71735024 -0.04882812 24.54101562 C-0.03813423 16.3606606 -0.02108765 8.1803348 0 0 Z " fill="#070809" transform="translate(207,259)"/>
<path d="M0 0 C3.30219322 2.67745396 4.76280994 4.95637015 6 9 C6.23551316 12.10920913 6.18893824 15.19674041 6.125 18.3125 C6.11597656 19.14845703 6.10695313 19.98441406 6.09765625 20.84570312 C6.07420989 22.89725969 6.03834266 24.94866777 6 27 C2.7 27 -0.6 27 -4 27 C-4.06058594 25.81921875 -4.12117188 24.6384375 -4.18359375 23.421875 C-4.26802582 21.8645723 -4.35267249 20.30728121 -4.4375 18.75 C-4.47681641 17.97269531 -4.51613281 17.19539063 -4.55664062 16.39453125 C-4.59853516 15.64042969 -4.64042969 14.88632812 -4.68359375 14.109375 C-4.72025146 13.41811523 -4.75690918 12.72685547 -4.79467773 12.01464844 C-5.00675524 9.93371671 -5.44508677 8.01427578 -6 6 C-8.64 6 -11.28 6 -14 6 C-16.07207097 12.34571734 -16.96794176 17.2344521 -14.6875 23.75 C-12.31499061 28.14761563 -8.81628726 31.28846541 -5.22387695 34.70410156 C2.03329335 41.73589391 7.06502315 49.35961117 7.29248047 59.56445312 C7.41725731 75.5237157 7.41725731 75.5237157 3 81 C-1.59734893 84.89006448 -7.11560229 84.35770744 -12.87890625 84.3984375 C-16.36261079 83.95370926 -18.20599872 83.09671998 -21 81 C-25.9107121 73.90674919 -26.16263414 66.98147019 -26.0625 58.5625 C-26.05798828 57.83095703 -26.05347656 57.09941406 -26.04882812 56.34570312 C-26.03718148 54.56376581 -26.01925191 52.78187137 -26 51 C-22.7 51 -19.4 51 -16 51 C-15.95101563 52.22976563 -15.90203125 53.45953125 -15.8515625 54.7265625 C-15.77648971 56.35939566 -15.70094385 57.99220712 -15.625 59.625 C-15.5940625 60.43324219 -15.563125 61.24148438 -15.53125 62.07421875 C-15.3047054 66.71838314 -14.7407332 70.62693856 -13 75 C-9.58343976 75.16677282 -9.58343976 75.16677282 -6 75 C-2.44353015 71.44353015 -3.44198981 66.19082346 -3.43212891 61.37915039 C-3.72427075 50.82130311 -8.83038971 46.08712886 -16.125 39 C-23.27532431 31.95867453 -26.43455157 26.04120727 -26.625 15.875 C-26.54066805 10.41371379 -25.99644035 5.81482388 -22.55078125 1.41796875 C-15.7109693 -4.83606585 -7.68980954 -4.06254089 0 0 Z " fill="#060709" transform="translate(352,261)"/>
<path d="M0 0 C8.25 0 16.5 0 25 0 C25 2.31 25 4.62 25 7 C19.72 7 14.44 7 9 7 C9 16.9 9 26.8 9 37 C13.95 37 18.9 37 24 37 C24 39.64 24 42.28 24 45 C19.38 45 14.76 45 10 45 C10 55.56 10 66.12 10 77 C14.95 77 19.9 77 25 77 C25 79.31 25 81.62 25 84 C16.75 84 8.5 84 0 84 C0 56.28 0 28.56 0 0 Z " fill="#030404" transform="translate(124,260)"/>
<path d="M0 0 C4.10658618 1.36886206 4.51065938 3.23043894 6.5625 7 C7.26561892 8.27285892 7.97011049 9.5449603 8.67578125 10.81640625 C9.23579834 11.83178467 9.23579834 11.83178467 9.80712891 12.86767578 C11.89193379 16.59438186 14.07426287 20.26338932 16.25 23.9375 C17.45676172 25.97858652 18.6623383 28.02025532 19.86132812 30.06591797 C20.62732824 31.36700136 21.40225808 32.66286433 22.18554688 33.95361328 C25 38.67116103 25 38.67116103 25 42 C8.83 42 -7.34 42 -24 42 C-22.42011132 37.26033395 -21.16872727 34.37084559 -18.5625 30.3125 C-14.45053908 23.79059861 -10.58554081 17.14759576 -6.76977539 10.44848633 C-6.3236792 9.67013428 -5.87758301 8.89178223 -5.41796875 8.08984375 C-4.82665161 7.05138306 -4.82665161 7.05138306 -4.22338867 5.99194336 C-2.93283234 3.89063641 -1.50776472 1.94986044 0 0 Z " fill="#BAD4EE" transform="translate(175,177)"/>
<path d="M0 0 C8.58 0 17.16 0 26 0 C26 2.64 26 5.28 26 8 C20.72 8 15.44 8 10 8 C10 17.24 10 26.48 10 36 C14.95 36 19.9 36 25 36 C25 38.64 25 41.28 25 44 C20.05 44 15.1 44 10 44 C10 57.86 10 71.72 10 86 C6.7 86 3.4 86 0 86 C0 57.62 0 29.24 0 0 Z " fill="#010101" transform="translate(291,259)"/>
<path d="M0 0 C8.25 0 16.5 0 25 0 C25 2.31 25 4.62 25 7 C20.05 7 15.1 7 10 7 C10 16.24 10 25.48 10 35 C14.95 35 19.9 35 25 35 C25 37.64 25 40.28 25 43 C20.05 43 15.1 43 10 43 C10 56.86 10 70.72 10 85 C6.7 85 3.4 85 0 85 C0 56.95 0 28.9 0 0 Z " fill="#020203" transform="translate(12,260)"/>
<path d="M0 0 C8.25 0 16.5 0 25 0 C25 2.31 25 4.62 25 7 C19.72 7 14.44 7 9 7 C9 16.24 9 25.48 9 35 C13.95 35 18.9 35 24 35 C24 37.64 24 40.28 24 43 C19.38 43 14.76 43 10 43 C10 56.86 10 70.72 10 85 C6.7 85 3.4 85 0 85 C0 56.95 0 28.9 0 0 Z " fill="#040506" transform="translate(255,260)"/>
<path d="M0 0 C3.3 0 6.6 0 10 0 C10 27.72 10 55.44 10 84 C6.7 84 3.4 84 0 84 C0 56.28 0 28.56 0 0 Z " fill="#030304" transform="translate(49,260)"/>
<path d="M0 0 C9 0 9 0 11.5 1.8125 C14.63352529 6.38222438 14.21769167 10.92720277 14.25 16.25 C14.270625 17.08402344 14.29125 17.91804688 14.3125 18.77734375 C14.34720364 24.30389893 13.61127383 28.1070306 11 33 C10.34 33.66 9.68 34.32 9 35 C6.03 35 3.06 35 0 35 C0 23.45 0 11.9 0 0 Z " fill="#B6CFE8" transform="translate(172,302)"/>
<path d="M0 0 C9 0 9 0 11.03979492 1.69506836 C12.11338609 4.2721785 12.3731795 6.0905424 12.36328125 8.87890625 C12.36263672 9.79994141 12.36199219 10.72097656 12.36132812 11.66992188 C12.34521484 12.62447266 12.32910156 13.57902344 12.3125 14.5625 C12.31572266 15.52091797 12.31894531 16.47933594 12.32226562 17.46679688 C12.26728664 24.59907003 12.26728664 24.59907003 10 28 C6.7 28 3.4 28 0 28 C0 18.76 0 9.52 0 0 Z " fill="#B9D3ED" transform="translate(172,267)"/>
<path d="M0 0 C8.58 0 17.16 0 26 0 C26 2.31 26 4.62 26 7 C20.72 7 15.44 7 10 7 C10 6.67 10 6.34 10 6 C14.95 6 19.9 6 25 6 C25 5.01 25 4.02 25 3 C17.08 3 9.16 3 1 3 C1 29.4 1 55.8 1 83 C3.97 83 6.94 83 10 83 C10 83.99 10 84.98 10 86 C6.7 86 3.4 86 0 86 C0 57.62 0 29.24 0 0 Z " fill="#191D21" transform="translate(291,259)"/>
<path d="M0 0 C8.25 0 16.5 0 25 0 C25 0.66 25 1.32 25 2 C17.08 2 9.16 2 1 2 C1 28.4 1 54.8 1 82 C3.64 82 6.28 82 9 82 C9 69.13 9 56.26 9 43 C9.33 43 9.66 43 10 43 C10 56.86 10 70.72 10 85 C6.7 85 3.4 85 0 85 C0 56.95 0 28.9 0 0 Z " fill="#0C0E10" transform="translate(12,260)"/>
<path d="M0 0 C0.33 0.66 0.66 1.32 1 2 C0.67 2.66 0.34 3.32 0 4 C44.55 4.495 44.55 4.495 90 5 C90 5.33 90 5.66 90 6 C59.64 6 29.28 6 -2 6 C-1 1 -1 1 0 0 Z " fill="#707F94" transform="translate(26,214)"/>
<path d="M0 0 C3.08995809 1.63243069 5.0482893 3.12351559 7.3125 5.75 C4.3125 5.75 4.3125 5.75 1.99609375 4.28125 C-2.62687032 1.64340151 -7.52083464 1.96696005 -12.6875 2.75 C-15.23768763 4.15430982 -16.65283633 5.60824876 -18.6875 7.75 C-19.3475 7.75 -20.0075 7.75 -20.6875 7.75 C-20.07159328 4.97841977 -19.34242602 3.23007458 -17.01953125 1.52734375 C-11.0816746 -1.6770315 -6.50075345 -2.20364524 0 0 Z " fill="#161A1E" transform="translate(348.6875,259.25)"/>
<path d="M0 0 C3.77076889 -0.05799124 7.54142334 -0.09359306 11.3125 -0.125 C12.38435547 -0.14175781 13.45621094 -0.15851563 14.56054688 -0.17578125 C15.58857422 -0.18222656 16.61660156 -0.18867188 17.67578125 -0.1953125 C18.62364502 -0.20578613 19.57150879 -0.21625977 20.5480957 -0.22705078 C23 0 23 0 26 2 C22.88248002 2.93714922 20.25850091 3.05686895 17.015625 2.87890625 C16.08105469 2.83056641 15.14648438 2.78222656 14.18359375 2.73242188 C13.21550781 2.67634766 12.24742187 2.62027344 11.25 2.5625 C10.26644531 2.51029297 9.28289062 2.45808594 8.26953125 2.40429688 C5.84601151 2.27488563 3.42293136 2.13993095 1 2 C0.67 1.34 0.34 0.68 0 0 Z " fill="#0B0D0F" transform="translate(162,260)"/>
<path d="M0 0 C-5.83500457 4.00114599 -12.13169436 3.49330372 -19 3 C-19.66 2.67 -20.32 2.34 -21 2 C-21 1.34 -21 0.68 -21 0 C-19.95199219 0.01160156 -18.90398437 0.02320313 -17.82421875 0.03515625 C-16.44531428 0.04453655 -15.06640789 0.0536365 -13.6875 0.0625 C-12.99720703 0.07087891 -12.30691406 0.07925781 -11.59570312 0.08789062 C-7.43848402 0.10797381 -3.85225793 -1.28408598 0 0 Z " fill="#0F1215" transform="translate(355,342)"/>
<path d="M0 0 C0.66 0.66 1.32 1.32 2 2 C-0.31 4.31 -2.62 6.62 -5 9 C-5.66 8.34 -6.32 7.68 -7 7 C-2.25 1.125 -2.25 1.125 0 0 Z " fill="#181B20" transform="translate(172,44)"/>
<path d="M0 0 C0.33 0.66 0.66 1.32 1 2 C0.67 2.66 0.34 3.32 0 4 C3.63 4.33 7.26 4.66 11 5 C11 5.33 11 5.66 11 6 C6.71 6 2.42 6 -2 6 C-1 1 -1 1 0 0 Z " fill="#7D8EA3" transform="translate(26,214)"/>
<path d="M0 0 C2.0625 0.4375 2.0625 0.4375 4 1 C2.37660195 2.70884005 0.70680947 4.37446717 -1 6 C-1.66 6 -2.32 6 -3 6 C-1.125 1.125 -1.125 1.125 0 0 Z " fill="#0F1114" transform="translate(331,261)"/>
<path d="M0 0 C0 3.69418201 -1.28179295 5.77836178 -3 9 C-3.66 9 -4.32 9 -5 9 C-3.90931332 5.22454612 -3.0916909 2.52956528 0 0 Z " fill="#313740" transform="translate(110,55)"/>
</svg>
